<svg width="613" height="110" viewBox="0 0 613 110" fill="none" xmlns="http://www.w3.org/2000/svg">
<path d="M445.386 62.1893C445.262 61.0476 445.155 60.4768 445.155 59.9257C445.155 41.2856 445.155 22.6259 445.102 3.98579C445.102 1.5057 446.025 0.619957 448.083 0.797106C448.19 0.797106 448.296 0.797106 448.403 0.797106C458.748 0.46249 458.694 0.501872 464.319 10.2845C469.483 19.2797 474.789 28.1962 480.68 37.034C480.733 35.853 480.857 34.6524 480.857 33.4714C480.857 23.8659 480.928 14.2408 480.822 4.63537C480.786 1.80098 481.638 0.600295 484.246 0.757761C486.961 0.915228 489.694 0.619952 492.373 0.915201C493.207 1.01362 494.556 2.43082 494.556 3.25752C494.68 22.7046 494.645 42.1517 494.645 62.1302C490.137 62.1302 485.808 62.2483 481.496 62.0121C480.786 61.9728 480.023 60.5555 479.491 59.6501C473.263 49.0211 467.087 38.3528 460.877 27.7042C460.504 27.0743 460.007 26.5626 458.96 25.1847C458.96 27.3105 458.96 28.5112 458.96 29.7316C458.96 39.337 458.872 48.9621 459.014 58.5676C459.049 61.461 458.215 62.4452 455.607 62.268C452.289 62.0515 448.97 62.209 445.386 62.209V62.1893Z" fill="white"/>
<path d="M0.053521 61.894C0.053521 60.4178 0.053521 59.2959 0.053521 58.1542C0.053521 40.3409 0.124499 22.5275 0.000287669 4.69442C-0.0174568 1.52541 0.781043 0.305053 3.69113 0.521569C12.102 1.13175 20.6371 0.679004 28.8883 2.27335C42.0901 4.81249 50.7139 18.5121 49.8977 33.4123C49.3476 43.3327 45.3728 51.3045 38.0444 56.5599C34.1761 59.3352 29.2609 61.1855 24.6651 61.6579C16.7156 62.4649 8.65958 61.8743 0.0712655 61.8743L0.053521 61.894ZM13.699 31.3849C13.699 35.7743 13.6635 40.1833 13.699 44.5727C13.77 51.0485 12.6698 50.6942 19.2885 50.5367C25.7297 50.3793 31.2305 48.0961 33.9099 40.9117C36.749 33.2745 36.5184 25.7949 32.2774 18.827C28.4091 12.4693 22.4115 12.3709 16.3607 12.3906C14.3201 12.3906 13.6103 13.1779 13.6458 15.4218C13.7522 20.7363 13.6813 26.0705 13.6813 31.3849H13.699Z" fill="white"/>
<path d="M101.019 62.1302C95.9976 62.1302 91.3131 62.2877 86.664 61.9924C85.6704 61.9334 84.4992 60.3981 83.8604 59.2368C80.3825 52.8004 77.0643 46.2852 73.6574 39.8094C73.3912 39.2976 72.9298 38.8843 71.9007 37.5852V61.9334H58.2374C58.1665 60.5949 58.0777 59.473 58.06 58.351C58.06 40.6361 58.131 22.9015 57.989 5.18651C57.9713 1.80098 58.9295 0.738062 61.9105 0.856162C69.097 1.15141 76.319 0.954598 83.5055 1.36795C92.1471 1.87971 98.0737 7.6469 100.079 16.8587C101.569 23.7675 97.2042 33.3533 90.9405 35.8727C87.9062 37.0931 88.5627 38.53 89.7161 40.6361C93.1763 46.9347 96.6187 53.2334 100.043 59.5517C100.398 60.2013 100.593 60.9689 101.019 62.1105V62.1302ZM71.8119 27.1531C73.1605 27.1531 74.1897 27.1531 75.2189 27.1531C76.8869 27.1531 78.5726 27.2318 80.2228 27.0743C83.5588 26.7594 86.0607 23.9643 86.3624 20.4016C86.6286 17.3114 84.8541 13.4338 82.3167 13.0795C78.892 12.5874 75.3786 12.9614 71.8119 12.9614V27.1531Z" fill="white"/>
<path d="M389.26 21.8582C389.26 27.527 389.42 33.2155 389.224 38.8843C388.781 52.328 379.429 62.6026 367.328 62.8782C358.988 63.075 351.659 60.3587 346.62 52.446C343.834 48.0567 342.929 42.9193 342.894 37.6442C342.805 26.5232 342.894 15.4021 342.805 4.28102C342.787 1.7222 343.621 0.698687 345.892 0.797104C348.501 0.89552 351.109 0.89552 353.718 0.797104C356.007 0.698687 356.77 1.72222 356.752 4.30073C356.646 15.5399 356.646 26.779 356.752 38.0182C356.823 47.1709 364.311 51.7374 371.427 47.1119C373.893 45.5175 375.082 42.9784 375.224 39.9865C375.473 34.5539 375.472 29.1017 375.508 23.6691C375.543 17.2917 375.614 10.9143 375.473 4.55662C375.402 1.62381 376.448 0.619935 378.986 0.777401C381.275 0.934867 383.599 0.974234 385.871 0.777401C388.71 0.521518 389.455 1.89936 389.366 4.85186C389.189 10.5206 389.313 16.2091 389.313 21.8779C389.295 21.8779 389.26 21.8779 389.242 21.8779L389.26 21.8582Z" fill="white"/>
<path d="M557.088 20.8741C552.172 20.8741 547.488 20.9725 542.821 20.7953C541.969 20.756 540.976 19.8505 540.319 19.0435C533.736 10.993 522.042 13.1976 518.334 23.2164C515.282 31.4834 516.896 40.518 522.308 45.3995C527.88 50.4384 535.67 49.6904 540.408 43.7264C540.905 43.0965 541.721 42.3879 542.395 42.3682C547.275 42.2501 552.155 42.3092 557.088 42.3092C555.774 53.8633 542.058 63.7837 529.229 62.957C516.754 62.15 502.239 49.8676 502.577 32.625C502.931 14.6935 513.72 2.15529 527.401 0.265693C543.726 -1.99788 555.845 10.6585 557.105 20.8741H557.088Z" fill="white"/>
<path d="M130.209 0.974237C135.125 0.974237 139.348 0.875816 143.571 1.09233C144.245 1.1317 145.186 2.48985 145.47 3.43465C149.391 16.6815 153.224 29.9481 157.11 43.2146C157.323 43.9626 157.713 44.6515 158.37 46.2064C160.073 40.5377 161.599 35.6365 163.054 30.696C165.716 21.6023 168.289 12.4693 171.039 3.3953C171.341 2.41114 172.494 1.11204 173.311 1.05299C177.339 0.816788 181.402 0.934892 186.282 0.934892C179.663 21.7008 173.258 41.8171 166.816 61.9728H149.711C143.287 41.8958 136.917 21.9369 130.227 0.974237H130.209Z" fill="white"/>
<path d="M414.121 25.106C419.267 25.106 423.951 25.2241 428.618 25.0469C430.96 24.9682 431.67 25.8342 431.688 28.4128C431.741 36.6404 431.83 36.6404 424.324 36.6404C421.715 36.6404 419.089 36.4829 416.498 36.7388C415.664 36.8175 414.28 37.9394 414.245 38.6677C414.014 42.565 414.138 46.482 414.138 50.773H433.959V61.9531H400.315C400.262 60.6146 400.156 59.3746 400.156 58.1542C400.156 40.4393 400.209 22.744 400.085 5.029C400.067 1.89936 400.848 0.679009 403.758 0.738059C412.737 0.875842 421.698 0.836476 430.676 0.738059C433.125 0.718376 434.278 1.48601 434.225 4.47787C434.065 13.8274 434.935 12.489 427.127 12.5874C423.578 12.6267 420.03 12.6661 416.481 12.5874C414.759 12.548 414.014 13.2566 414.067 15.2053C414.138 18.4137 414.085 21.622 414.085 25.106H414.121Z" fill="white"/>
<path d="M205.943 25.2044H223.226V36.601C218.684 36.601 214.141 36.7782 209.616 36.542C206.759 36.4042 205.641 37.349 205.89 40.6361C206.138 43.8248 205.943 47.0725 205.943 50.773C211.391 50.773 216.572 50.773 221.753 50.773C226.101 50.773 226.136 50.773 226.101 55.3985C226.048 63.4687 226.793 62.0712 219.926 62.1499C211.692 62.2287 203.441 62.1106 195.208 62.209C193.078 62.2287 192.28 61.5594 192.298 59.099C192.369 40.8132 192.369 22.5275 192.298 4.26139C192.298 1.62383 193.256 0.836479 195.456 0.856163C204.63 0.934896 213.822 0.97426 222.996 0.91521C225.285 0.91521 226.136 1.91906 226.136 4.41883C226.119 14.103 226.686 12.4496 219.127 12.5874C215.578 12.6464 212.029 12.6661 208.481 12.5874C206.635 12.548 205.837 13.2567 205.925 15.4021C206.05 18.4924 205.961 21.5827 205.961 25.2241L205.943 25.2044Z" fill="white"/>
<path d="M561.506 0.816831C566.509 0.816831 570.963 0.619972 575.382 0.974271C576.358 1.053 577.493 2.98199 578.026 4.32045C580.882 11.5836 583.58 18.9451 586.366 26.2476C586.49 26.6019 586.898 26.8184 587.395 27.3105C590.34 19.5553 593.304 12.115 595.983 4.55664C596.959 1.80098 598.237 0.482181 601.022 0.659331C604.713 0.89553 608.44 0.718378 613 0.718378C611.421 4.32042 610.285 7.07609 609.043 9.7727C604.27 20.1064 599.425 30.4205 594.723 40.7936C594.102 42.1714 593.96 43.9035 593.925 45.4782C593.836 50.8911 593.889 56.304 593.889 61.9334H580.297C580.297 57.5243 580.049 53.0366 580.368 48.6275C580.705 44.1004 579.303 40.3015 577.547 36.4829C572.472 25.5193 567.432 14.5558 562.393 3.57248C562.127 2.98198 561.985 2.33244 561.488 0.816831H561.506Z" fill="white"/>
<path d="M290.937 25.1257V36.6207C286.643 36.6207 282.402 36.8175 278.197 36.5616C275.216 36.3845 274.169 37.408 274.275 40.8132C274.488 47.7418 274.346 54.6702 274.346 62.1302C270.088 62.1302 266.042 62.2286 262.032 62.0121C261.482 61.9727 260.594 60.2603 260.577 59.3155C260.435 53.6467 260.506 47.978 260.506 42.2895C260.506 29.9087 260.577 17.5082 260.452 5.12743C260.417 2.03715 261.162 0.757717 264.108 0.797083C273.92 0.934866 283.733 0.8955 293.546 0.797083C295.977 0.7774 296.793 1.62382 296.758 4.39916C296.687 12.6071 296.793 12.6071 289.305 12.6071C285.135 12.6071 280.947 12.6661 276.777 12.5874C275.074 12.548 274.293 13.2172 274.346 15.1856C274.417 18.3939 274.364 21.6023 274.364 25.1453H290.955L290.937 25.1257Z" fill="white"/>
<path d="M336.098 61.9531H305.897C305.843 60.6147 305.737 59.4927 305.737 58.3511C305.737 40.518 305.808 22.685 305.666 4.85191C305.63 1.52543 306.677 0.560937 309.445 0.777454C311.735 0.954603 314.041 0.895553 316.33 0.777454C318.726 0.659354 319.631 1.7223 319.613 4.45828C319.524 18.3547 319.578 32.2511 319.578 46.1475C319.578 47.5253 319.578 48.8834 319.578 50.7336C324.262 50.7336 328.609 50.8911 332.957 50.6746C335.441 50.5565 336.328 51.4619 336.133 54.1979C335.956 56.6977 336.098 59.2172 336.098 61.9138V61.9531Z" fill="white"/>
<path d="M110.672 1.32854H123.927C124.016 2.41112 124.158 3.39534 124.158 4.39919C124.158 22.4488 124.105 40.4983 124.229 58.5479C124.247 61.5397 123.36 62.3467 120.822 62.1696C117.522 61.9531 114.186 62.1105 110.672 62.1105V1.3089V1.32854Z" fill="white"/>
<path d="M423.365 110C417.722 106.162 416.463 99.6859 412.097 94.9619C412.097 98.4853 412.097 101.398 412.097 104.312C412.097 105.355 412.204 106.437 411.973 107.422C411.813 108.032 411.104 108.465 410.642 108.976C410.234 108.425 409.507 107.855 409.489 107.303C409.4 101.536 409.436 95.769 409.436 88.8011C411.157 90.0018 412.523 90.4742 413.198 91.4977C415.575 95.0998 417.722 98.8789 419.958 102.579C420.278 102.54 420.615 102.501 420.934 102.442C420.934 100.473 420.934 98.505 420.934 96.5366C420.934 94.6864 420.916 92.8362 421.076 90.9859C421.112 90.5135 421.768 89.8049 422.194 89.7459C422.531 89.7065 423.312 90.4545 423.312 90.8679C423.383 96.8516 423.365 102.835 423.365 109.961V110Z" fill="white"/>
<path d="M178.917 89.8837C182.147 89.8837 184.968 89.5884 187.718 89.9624C190.806 90.3758 193.503 94.1156 193.822 97.6979C194.248 102.501 192.935 106.024 189.51 107.343C186.831 108.386 183.885 108.701 181.046 108.957C180.39 109.016 179.041 107.579 179.024 106.792C178.846 101.28 178.935 95.7493 178.935 89.864L178.917 89.8837ZM182.005 106.969C185.429 106.969 188.41 106.929 190.132 103.682C191.746 100.65 191.658 97.3633 189.972 94.4502C188.073 91.2025 185.057 91.6749 182.005 92.1079V106.969Z" fill="white"/>
<path d="M376.219 109.291C371.8 109.291 367.843 104.626 367.737 99.2529C367.612 93.7022 371.658 89.2735 376.822 89.2932C382.11 89.2932 385.818 93.466 385.765 99.3513C385.712 105.099 381.702 109.291 376.219 109.291ZM370.54 99.0561C370.523 103.564 372.865 106.418 376.662 106.496C380.424 106.575 383.032 103.819 383.086 99.6859C383.157 95.021 380.708 91.9308 376.875 91.9111C372.9 91.8717 370.54 94.529 370.523 99.0561H370.54Z" fill="white"/>
<path d="M77.0113 109.252C76.5676 108.425 75.7514 107.599 75.7337 106.772C75.6094 101.792 75.6627 96.8319 75.6804 91.852C75.6804 91.3009 75.8756 90.2773 76.0176 90.2577C78.8744 90.1002 81.8023 89.6475 84.5881 90.1789C85.706 90.3954 86.9836 92.6393 87.3385 94.1943C88.0483 97.4224 86.54 99.7253 83.3283 100.965C84.8011 103.544 86.1319 105.886 87.6402 108.524C84.3042 109.626 84.0735 106.673 82.7959 105.237C81.5538 103.839 81.5361 100.749 78.5018 101.32C78.3066 103.898 78.0937 106.437 77.8985 108.996C77.5968 109.095 77.2952 109.173 76.9935 109.272L77.0113 109.252ZM77.8985 91.9504C78.3953 94.4502 78.3953 96.8515 79.4245 98.4065C79.8859 99.0954 82.6185 98.5246 83.9316 97.7176C84.6236 97.2846 85.014 94.9029 84.6059 93.84C83.3993 90.73 80.8441 92.0685 77.8985 91.9504Z" fill="white"/>
<path d="M584.289 101.379C584.289 103.308 584.377 105.256 584.235 107.166C584.182 107.815 583.579 108.406 583.242 109.016C582.709 108.445 581.733 107.894 581.716 107.303C581.592 101.989 581.574 96.6744 581.68 91.3599C581.68 90.7694 582.603 89.7065 583.135 89.6868C585.513 89.5884 588.015 89.3522 590.269 90.0215C591.564 90.4151 593.303 92.3834 593.356 93.7219C593.427 95.7689 592.771 98.6821 591.44 99.745C589.47 101.339 589.914 102.186 590.978 103.76C591.901 105.119 592.664 106.614 593.498 108.071C593.374 108.425 593.25 108.76 593.125 109.114C592.15 108.721 590.925 108.602 590.269 107.874C589.275 106.752 588.76 105.119 587.891 103.859C587.11 102.737 586.099 101.812 585.194 100.788C584.892 100.985 584.59 101.202 584.289 101.398V101.379ZM584.466 99.2726C586.808 98.4459 588.725 98.1113 590.251 97.0681C590.765 96.7138 590.712 93.7219 590.18 93.3873C588.565 92.3835 586.596 92.0882 584.484 91.419V99.2726H584.466Z" fill="white"/>
<path d="M143.624 94.962C143.34 100.001 143.109 104.213 142.825 108.406C142.825 108.642 142.204 108.839 141.353 109.37V89.1948C146.871 92.226 147.776 99.0167 152.248 103.426C152.248 99.5876 152.123 96.2217 152.319 92.8755C152.372 91.8126 153.241 90.7891 153.738 89.7656C154.146 90.7891 154.856 91.7929 154.892 92.8165C155.016 97.0878 155.016 101.359 154.892 105.63C154.856 106.733 154.235 107.835 153.88 108.917C152.993 108.288 151.857 107.874 151.272 106.988C149.249 103.938 147.457 100.71 145.54 97.5799C145.097 96.8516 144.529 96.202 143.624 94.9423V94.962Z" fill="white"/>
<path d="M447.675 99.1152C447.675 98.3081 447.462 97.4027 447.711 96.7138C448.527 94.3715 445.563 90.3167 449.787 89.6671C456.707 88.6042 461.285 91.0647 462.084 95.9461C462.669 99.5875 463.077 103.465 460.096 106.24C456.938 109.173 453.069 109.488 449.183 108.976C448.598 108.898 447.852 107.343 447.764 106.398C447.569 103.997 447.693 101.556 447.693 99.1348C447.693 99.1348 447.675 99.1348 447.657 99.1348L447.675 99.1152ZM450.443 92.0882V106.792C453.779 107.107 456.796 106.91 458.748 103.8C460.487 101.024 460.433 97.8357 458.943 94.9619C457.044 91.3009 453.815 91.6552 450.443 92.0882Z" fill="white"/>
<path d="M342.521 95.2572C341.528 94.7848 340.357 94.5486 339.558 93.8203C336.63 91.2025 333.135 91.2025 330.597 93.9975C328.432 96.3988 328.468 102.028 330.686 104.508C333.135 107.244 336.683 107.087 339.665 104.331C340.428 103.623 341.563 103.386 343.125 102.638C341.581 107.284 337.748 109.724 334.146 109.193C330.083 108.583 326.463 104.351 326.143 99.8237C325.859 95.6902 328.468 91.0056 331.68 89.9033C336.772 88.1515 340.357 89.5294 342.912 94.2337C342.788 94.5683 342.663 94.9029 342.539 95.2375L342.521 95.2572Z" fill="white"/>
<path d="M281.428 109.764C278.979 107.54 277.968 104.666 274.383 104.666C270.87 104.666 270.355 108.209 268.084 109.252C267.8 109.055 267.534 108.839 267.25 108.642C268.102 105.67 268.936 102.678 269.841 99.7253C270.71 96.8909 271.58 94.0369 272.68 91.3009C272.981 90.5529 274.011 89.8443 274.756 89.7459C275.324 89.6672 276.335 90.4545 276.566 91.104C278.34 96.2611 280.008 101.477 281.623 106.713C281.818 107.362 281.552 108.189 281.446 109.744L281.428 109.764ZM271.615 102.422C273.886 102.284 275.43 102.186 277.4 102.068C276.477 99.1151 275.75 96.7138 274.685 93.3283C273.549 96.6941 272.715 99.1545 271.615 102.422Z" fill="white"/>
<path d="M5.07487 107.874C6.86706 102.245 8.60602 96.5957 10.4869 91.0057C10.7176 90.3167 11.6758 89.5884 12.3324 89.5491C12.9179 89.5097 13.8939 90.2183 14.1245 90.8482C15.9522 96.0052 17.6912 101.202 19.3414 106.418C19.5189 106.988 19.093 107.795 18.951 108.484C18.3477 108.15 17.567 107.992 17.1766 107.461C14.4439 103.682 10.4869 103.741 7.57684 107.618C7.16872 108.169 6.33473 108.327 5.69593 108.681C5.483 108.406 5.27006 108.13 5.05713 107.855L5.07487 107.874ZM12.9179 94.273L12.1727 94.214C11.3209 96.6547 10.4692 99.0955 9.49324 101.93H15.065C14.2842 99.1151 13.5922 96.6941 12.9179 94.273Z" fill="white"/>
<path d="M537.816 95.3556C536.823 94.8242 535.687 94.4502 534.835 93.7022C531.961 91.1434 528.288 91.3008 525.945 94.2139C523.568 97.1664 523.674 101.871 526.194 104.646C528.447 107.146 532.245 106.988 534.977 104.449C535.776 103.721 536.84 103.367 538.331 102.54C537.373 106.969 533.7 109.547 529.991 109.252C525.573 108.898 522.255 105.138 521.811 99.9615C521.421 95.4737 523.976 90.7891 527.347 89.8246C532.99 88.2106 536.415 89.6474 537.816 95.3359V95.3556Z" fill="white"/>
<path d="M486.463 89.3522C486.872 90.3167 487.581 91.2615 487.635 92.2456C487.794 95.3556 487.67 98.5049 487.759 101.615C487.83 104.331 488.717 106.28 491.592 106.398C494.573 106.516 495.762 104.646 495.886 101.733C496.028 98.623 495.868 95.4737 496.028 92.3637C496.081 91.4386 496.826 90.5529 497.252 89.6475C497.696 90.4939 498.476 91.3205 498.512 92.2063C498.636 95.6706 498.636 99.1545 498.512 102.619C498.352 106.752 495.495 109.39 491.556 109.272C487.848 109.173 485.257 106.418 485.186 102.383C485.115 98.2294 485.186 94.0959 485.186 89.9427C485.629 89.7459 486.055 89.5491 486.499 89.3326L486.463 89.3522Z" fill="white"/>
<path d="M109.802 89.8443H119.154C117.22 93.1117 114.434 91.0056 112.358 92.3244V97.7373C114.31 97.8948 116.119 98.0325 117.947 98.1703C118.018 98.6034 118.089 99.0364 118.16 99.4891C116.315 99.8631 114.469 100.237 112.606 100.611C111.382 105.807 111.63 106.142 116.581 106.654C117.291 106.733 117.965 107.303 118.657 107.658C117.965 108.13 117.273 109.016 116.599 109.016C108.223 108.996 109.501 110.276 109.394 101.615C109.359 98.0325 109.43 94.4305 109.465 90.8481C109.465 90.6316 109.589 90.4151 109.785 89.8443H109.802Z" fill="white"/>
<path d="M43.1012 89.6671C45.408 89.6671 47.5728 89.5687 49.7376 89.6868C52.8252 89.864 54.3157 91.5961 54.4754 94.8438C54.6351 97.9932 53.0913 100.887 50.4119 100.749C45.8693 100.493 44.5208 102.56 45.0531 107.146C45.1241 107.717 44.6272 108.366 44.3966 109.016C42.6044 107.599 42.0543 99.3513 43.1012 89.6671ZM47.9454 98.6821C50.3232 98.8002 52.0089 97.9145 52.0622 95.3753C52.1331 92.5606 50.2522 91.9701 48.0519 91.793C45.5499 91.5764 45.0708 92.8755 45.1241 95.2769C45.1596 97.6782 45.7096 99.1348 47.9454 98.7017V98.6821Z" fill="white"/>
<path d="M224.894 89.923C222.959 93.3676 220.103 90.7498 217.973 92.5212V97.6783C219.783 97.8357 221.593 98.0129 224.166 98.2294C222.374 101.28 219.89 99.5678 218.204 100.493C215.312 108.091 221.487 105.985 224.592 107.973C223.9 108.347 223.243 108.957 222.534 109.055C215.276 110 215.099 109.823 215.099 101.654C215.099 97.8554 215.099 94.0368 215.099 89.9033H224.894V89.923Z" fill="white"/>
<path d="M559.394 99.2135C559.394 96.6744 559.288 94.1156 559.465 91.5961C559.518 90.9072 560.476 90.2773 561.026 89.6278C561.452 90.2773 562.215 90.9072 562.233 91.5764C562.34 96.7728 562.34 101.969 562.215 107.166C562.215 107.835 561.204 108.484 560.654 109.134C560.246 108.484 559.5 107.855 559.465 107.185C559.323 104.528 559.412 101.871 559.412 99.2135H559.394Z" fill="white"/>
<path d="M217.086 88.7027C217.441 85.514 219.198 84.1559 222.445 84.7857C220.813 85.9864 219.18 87.1674 217.086 88.7027Z" fill="white"/>
</svg>
