<?xml version="1.0" encoding="UTF-8"?>
<svg id="Capa_1" data-name="Capa 1" xmlns="http://www.w3.org/2000/svg" viewBox="0 0 345.47 315.32">
  <defs>
    <style>
      .cls-1 {
        fill: #fff;
        stroke-width: 0px;
      }
    </style>
  </defs>
  <path class="cls-1" d="M60.77,109.84c1.93-43.5,22.01-76.99,61.6-97.41,65.16-33.62,143.55,4.06,159.55,75.64,14.44,64.57-29.4,122.76-87.69,134.23-27.39,5.39-53.38,1.65-77.33-12.84-30.38-18.38-48.54-45.39-54.48-80.42-1.01-5.95-1.06-12.07-1.65-19.2ZM240.85,64.42c-18.96-25.02-43.58-37.01-74.63-34.97-25.58,1.69-45.23,14.08-60.61,34.17.47.26.66.42.89.5,14.74,5.04,29.46,10.15,44.26,15.02,1.71.56,4.07.23,5.79-.49,5.2-2.18,10.49-3.64,16.15-3.64,5.58,0,10.87,1.28,15.89,3.6,2.95,1.36,5.72,1.63,8.86.49,6.44-2.34,13.01-4.34,19.51-6.53,7.85-2.65,15.68-5.35,23.88-8.15ZM93.94,88.19c-7.77,26.06-3.79,49.95,11.27,71.85,12.81,18.62,30.57,29.87,53.21,33.78-.07-.82-.07-1.21-.14-1.59-1.25-7.73-2.48-15.45-3.77-23.17-1.24-7.4-2.39-14.81-3.88-22.16-.79-3.89-2.55-7.39-5.5-10.31-3.29-3.27-5.93-7.19-7.07-11.7-1.4-5.54-5.11-9.02-9.43-12.12-8.4-6.03-16.83-12.03-25.27-18.02-3.01-2.14-6.07-4.22-9.44-6.55ZM187.59,193.29c45.36-4.96,80.41-57.58,64.5-103.94-.76.54-1.46,1.05-2.18,1.55-12.65,8.83-25.33,17.62-37.92,26.54-1.44,1.02-2.91,2.57-3.48,4.18-2.64,7.43-6.97,13.78-11.76,19.91-.7.9-1.18,2.12-1.37,3.26-2.13,12.74-4.2,25.49-6.26,38.24-.55,3.4-1.01,6.81-1.52,10.27ZM70.09,102c3.89,0,7.6.07,11.3-.07.62-.02,1.6-.95,1.72-1.59.59-3.09.71-6.27,1.42-9.33,10.63-45.62,55.45-76.29,101.61-68.74,34.49,5.65,58.53,25.24,71.47,57.81,2.56,6.45,3.56,13.53,5.36,20.29.19.71.87,1.8,1.36,1.82,3.85.15,7.7.08,11.59.08-3.01-43.56-39.73-90.32-96.02-93.74-65.53-3.98-107.22,48.08-109.8,93.45ZM69.45,122.54c1.89,13.76,5.38,26.92,12.06,39.12,9.56,17.44,22.56,31.75,40.14,41.11,37.04,19.72,73.98,18.78,109.14-4.15,26.76-17.45,41.44-43.13,45.29-75.15h-12.72c-1.63,10.95-4.68,21.36-9.88,31.08-5.2,9.73-11.9,18.28-20.11,25.65-8.21,7.36-17.44,13.09-27.68,17.16-10.24,4.08-20.89,6.27-31.91,6.32-19.43.09-37.15-5.49-52.97-16.75-22.15-15.76-34.44-37.59-38.64-64.39h-12.72ZM173.05,83.27c-16.15,0-29.16,12.7-29.17,28.46-.01,16.63,12.67,29.82,28.68,29.83,16.11,0,29.61-13.15,29.59-28.82-.03-16.36-12.97-29.47-29.1-29.47ZM160.45,146.89c-.18.25-.27.32-.26.38,2.17,15.51,4.34,31.02,6.61,46.51.09.58,1.22,1.39,1.9,1.44,2.74.17,5.5,0,8.25.1,1.6.06,2.2-.43,2.44-2.12,1.64-11.51,3.44-22.99,5.17-34.49.61-4.04,1.16-8.08,1.79-12.46-8.86,3.31-17.42,3.44-25.9.65ZM249.92,80.87c-1.33-2.61-2.69-5.07-3.85-7.62-.67-1.48-1.35-1.74-2.95-1.21-11.31,3.76-22.67,7.39-34,11.07-3.17,1.03-6.33,2.11-9.89,3.3,6.32,7.03,9.65,14.97,10.25,24.37,13.71-10.14,27-19.97,40.44-29.91ZM101.14,69.56c-1.17,3.1-2.21,6.06-3.42,8.94-.63,1.49-.23,2.26,1.03,3.17,11.65,8.42,23.26,16.91,34.88,25.37.61.44,1.28.81,2.16,1.36,1.03-8.85,4.6-16.2,10.6-22.5-15.14-5.47-30.05-10.85-45.25-16.34ZM82.11,115.17c0-2.13.1-4.07-.07-5.98-.05-.53-.89-1.41-1.38-1.42-3.77-.12-7.55-.07-11.38-.07v7.64c4,0,7.79,0,11.59,0,.31,0,.62-.08,1.24-.17ZM264.02,108.8v7.35c3.87,0,7.56.06,11.25-.07.54-.02,1.55-1.08,1.47-1.52-.32-1.9,1.21-4.15-.95-5.71-.16-.12-.47-.05-.71-.05-3.62,0-7.24,0-11.07,0Z"/>
  <path class="cls-1" d="M172.58,126.54c-8.13-.06-14.19-6.24-14.08-14.37.11-8.19,6.22-14.12,14.47-14.02,8.04.09,14.08,6.37,14,14.56-.08,7.86-6.36,13.89-14.38,13.83ZM181.56,112.42c.02-5.03-3.87-8.96-8.85-8.95-4.96,0-8.97,4.04-8.91,8.95.06,4.86,3.9,8.69,8.77,8.74,5.08.05,8.97-3.74,8.99-8.75Z"/>
  <g>
    <path class="cls-1" d="M251,291.03c-.07-.58-.13-.87-.13-1.15,0-9.47,0-18.95-.03-28.42,0-1.26.52-1.71,1.68-1.62.06,0,.12,0,.18,0,5.83-.17,5.8-.15,8.97,4.82,2.91,4.57,5.9,9.1,9.22,13.59.03-.6.1-1.21.1-1.81,0-4.88.04-9.77-.02-14.65-.02-1.44.46-2.05,1.93-1.97,1.53.08,3.07-.07,4.58.08.47.05,1.23.77,1.23,1.19.07,9.88.05,19.76.05,29.91-2.54,0-4.98.06-7.41-.06-.4-.02-.83-.74-1.13-1.2-3.51-5.4-6.99-10.82-10.49-16.23-.21-.32-.49-.58-1.08-1.28,0,1.08,0,1.69,0,2.31,0,4.88-.05,9.77.03,14.65.02,1.47-.45,1.97-1.92,1.88-1.87-.11-3.74-.03-5.76-.03Z"/>
    <path class="cls-1" d="M.03,290.88c0-.75,0-1.32,0-1.9,0-9.05.04-18.1-.03-27.16-.01-1.61.44-2.23,2.08-2.12,4.74.31,9.55.08,14.2.89,7.44,1.29,12.3,8.25,11.84,15.82-.31,5.04-2.55,9.09-6.68,11.76-2.18,1.41-4.95,2.35-7.54,2.59-4.48.41-9.02.11-13.86.11ZM7.72,275.38s0,0,0,0c0,2.23-.02,4.47,0,6.7.04,3.29-.58,3.11,3.15,3.03,3.63-.08,6.73-1.24,8.24-4.89,1.6-3.88,1.47-7.68-.92-11.22-2.18-3.23-5.56-3.28-8.97-3.27-1.15,0-1.55.4-1.53,1.54.06,2.7.02,5.41.02,8.11Z"/>
    <path class="cls-1" d="M56.93,291c-2.83,0-5.47.08-8.09-.07-.56-.03-1.22-.81-1.58-1.4-1.96-3.27-3.83-6.58-5.75-9.87-.15-.26-.41-.47-.99-1.13v12.37h-7.7c-.04-.68-.09-1.25-.1-1.82,0-9,.04-18.01-.04-27.01-.01-1.72.53-2.26,2.21-2.2,4.05.15,8.12.05,12.17.26,4.87.26,8.21,3.19,9.34,7.87.84,3.51-1.62,8.38-5.15,9.66-1.71.62-1.34,1.35-.69,2.42,1.95,3.2,3.89,6.4,5.82,9.61.2.33.31.72.55,1.3ZM40.47,273.23c.76,0,1.34,0,1.92,0,.94,0,1.89.04,2.82-.04,1.88-.16,3.29-1.58,3.46-3.39.15-1.57-.85-3.54-2.28-3.72-1.93-.25-3.91-.06-5.92-.06v7.21Z"/>
    <path class="cls-1" d="M219.37,270.54c0,2.88.09,5.77-.02,8.65-.25,6.83-5.52,12.05-12.34,12.19-4.7.1-8.83-1.28-11.67-5.3-1.57-2.23-2.08-4.84-2.1-7.52-.05-5.65,0-11.3-.05-16.95-.01-1.3.46-1.82,1.74-1.77,1.47.05,2.94.05,4.41,0,1.29-.05,1.72.47,1.71,1.78-.06,5.71-.06,11.42,0,17.13.04,4.65,4.26,6.97,8.27,4.62,1.39-.81,2.06-2.1,2.14-3.62.14-2.76.14-5.53.16-8.29.02-3.24.06-6.48-.02-9.71-.04-1.49.55-2,1.98-1.92,1.29.08,2.6.1,3.88,0,1.6-.13,2.02.57,1.97,2.07-.1,2.88-.03,5.77-.03,8.65-.01,0-.03,0-.04,0Z"/>
    <path class="cls-1" d="M313.95,270.04c-2.77,0-5.41.05-8.04-.04-.48-.02-1.04-.48-1.41-.89-3.71-4.09-10.3-2.97-12.39,2.12-1.72,4.2-.81,8.79,2.24,11.27,3.14,2.56,7.53,2.18,10.2-.85.28-.32.74-.68,1.12-.69,2.75-.06,5.5-.03,8.28-.03-.74,5.87-8.47,10.91-15.7,10.49-7.03-.41-15.21-6.65-15.02-15.41.2-9.11,6.28-15.48,13.99-16.44,9.2-1.15,16.03,5.28,16.74,10.47Z"/>
    <path class="cls-1" d="M73.38,259.93c2.77,0,5.15-.05,7.53.06.38.02.91.71,1.07,1.19,2.21,6.73,4.37,13.47,6.56,20.21.12.38.34.73.71,1.52.96-2.88,1.82-5.37,2.64-7.88,1.5-4.62,2.95-9.26,4.5-13.87.17-.5.82-1.16,1.28-1.19,2.27-.12,4.56-.06,7.31-.06-3.73,10.55-7.34,20.77-10.97,31.01h-9.64c-3.62-10.2-7.21-20.34-10.98-30.99Z"/>
    <path class="cls-1" d="M233.38,272.19c2.9,0,5.54.06,8.17-.03,1.32-.04,1.72.4,1.73,1.71.03,4.18.08,4.18-4.15,4.18-1.47,0-2.95-.08-4.41.05-.47.04-1.25.61-1.27.98-.13,1.98-.06,3.97-.06,6.15h11.17v5.68h-18.96c-.03-.68-.09-1.31-.09-1.93,0-9,.03-17.99-.04-26.99-.01-1.59.43-2.21,2.07-2.18,5.06.07,10.11.05,15.17,0,1.38-.01,2.03.38,2,1.9-.09,4.75.4,4.07-4,4.12-2,.02-4,.04-6,0-.97-.02-1.39.34-1.36,1.33.04,1.63.01,3.26.01,5.03Z"/>
    <path class="cls-1" d="M116.06,272.24h9.74v5.79c-2.56,0-5.12.09-7.67-.03-1.61-.07-2.24.41-2.1,2.08.14,1.62.03,3.27.03,5.15,3.07,0,5.99,0,8.91,0,2.45,0,2.47,0,2.45,2.35-.03,4.1.39,3.39-3.48,3.43-4.64.04-9.29-.02-13.93.03-1.2.01-1.65-.33-1.64-1.58.04-9.29.04-18.58,0-27.86,0-1.34.54-1.74,1.78-1.73,5.17.04,10.35.06,15.52.03,1.29,0,1.77.51,1.77,1.78-.01,4.92.31,4.08-3.95,4.15-2,.03-4,.04-6,0-1.04-.02-1.49.34-1.44,1.43.07,1.57.02,3.14.02,4.99Z"/>
    <path class="cls-1" d="M316.44,259.85c2.82,0,5.33-.1,7.82.08.55.04,1.19,1.02,1.49,1.7,1.61,3.69,3.13,7.43,4.7,11.14.07.18.3.29.58.54,1.66-3.94,3.33-7.72,4.84-11.56.55-1.4,1.27-2.07,2.84-1.98,2.08.12,4.18.03,6.75.03-.89,1.83-1.53,3.23-2.23,4.6-2.69,5.25-5.42,10.49-8.07,15.76-.35.7-.43,1.58-.45,2.38-.05,2.75-.02,5.5-.02,8.36h-7.66c0-2.24-.14-4.52.04-6.76.19-2.3-.6-4.23-1.59-6.17-2.86-5.57-5.7-11.14-8.54-16.72-.15-.3-.23-.63-.51-1.4Z"/>
    <path class="cls-1" d="M163.96,272.2v5.84c-2.42,0-4.81.1-7.18-.03-1.68-.09-2.27.43-2.21,2.16.12,3.52.04,7.04.04,10.83-2.4,0-4.68.05-6.94-.06-.31-.02-.81-.89-.82-1.37-.08-2.88-.04-5.76-.04-8.65,0-6.29.04-12.59-.03-18.88-.02-1.57.4-2.22,2.06-2.2,5.53.07,11.06.05,16.59,0,1.37-.01,1.83.42,1.81,1.83-.04,4.17.02,4.17-4.2,4.17-2.35,0-4.71.03-7.06-.01-.96-.02-1.4.32-1.37,1.32.04,1.63.01,3.26.01,5.06h9.35Z"/>
    <path class="cls-1" d="M189.41,290.91h-17.02c-.03-.68-.09-1.25-.09-1.83,0-9.06.04-18.12-.04-27.18-.02-1.69.57-2.18,2.13-2.07,1.29.09,2.59.06,3.88,0,1.35-.06,1.86.48,1.85,1.87-.05,7.06-.02,14.12-.02,21.18,0,.7,0,1.39,0,2.33,2.64,0,5.09.08,7.54-.03,1.4-.06,1.9.4,1.79,1.79-.1,1.27-.02,2.55-.02,3.92Z"/>
    <path class="cls-1" d="M62.37,260.11h7.47c.05.55.13,1.05.13,1.56,0,9.17-.03,18.34.04,27.51.01,1.52-.49,1.93-1.92,1.84-1.86-.11-3.74-.03-5.72-.03v-30.89Z"/>
    <path class="cls-1" d="M238.59,315.32c-3.18-1.95-3.89-5.24-6.35-7.64,0,1.79,0,3.27,0,4.75,0,.53.06,1.08-.07,1.58-.09.31-.49.53-.75.79-.23-.28-.64-.57-.65-.85-.05-2.93-.03-5.86-.03-9.4.97.61,1.74.85,2.12,1.37,1.34,1.83,2.55,3.75,3.81,5.63.18-.02.37-.04.55-.07,0-1,0-2,0-3,0-.94-.01-1.88.08-2.82.02-.24.39-.6.63-.63.19-.02.63.36.63.57.04,3.04.03,6.08.03,9.7Z"/>
    <path class="cls-1" d="M100.83,305.1c1.82,0,3.41-.15,4.96.04,1.74.21,3.26,2.11,3.44,3.93.24,2.44-.5,4.23-2.43,4.9-1.51.53-3.17.69-4.77.82-.37.03-1.13-.7-1.14-1.1-.1-2.8-.05-5.61-.05-8.6ZM102.57,313.78c1.93,0,3.61-.02,4.58-1.67.91-1.54.86-3.21-.09-4.69-1.07-1.65-2.77-1.41-4.49-1.19v7.55Z"/>
    <path class="cls-1" d="M212.02,314.96c-2.49,0-4.72-2.37-4.78-5.1-.07-2.82,2.21-5.07,5.12-5.06,2.98,0,5.07,2.12,5.04,5.11-.03,2.92-2.29,5.05-5.38,5.05ZM208.82,309.76c-.01,2.29,1.31,3.74,3.45,3.78,2.12.04,3.59-1.36,3.62-3.46.04-2.37-1.34-3.94-3.5-3.95-2.24-.02-3.57,1.33-3.58,3.63Z"/>
    <path class="cls-1" d="M43.4,314.94c-.25-.42-.71-.84-.72-1.26-.07-2.53-.04-5.05-.03-7.58,0-.28.11-.8.19-.81,1.61-.08,3.26-.31,4.83-.04.63.11,1.35,1.25,1.55,2.04.4,1.64-.45,2.81-2.26,3.44.83,1.31,1.58,2.5,2.43,3.84-1.88.56-2.01-.94-2.73-1.67-.7-.71-.71-2.28-2.42-1.99-.11,1.31-.23,2.6-.34,3.9-.17.05-.34.09-.51.14ZM43.9,306.15c.28,1.27.28,2.49.86,3.28.26.35,1.8.06,2.54-.35.39-.22.61-1.43.38-1.97-.68-1.58-2.12-.9-3.78-.96Z"/>
    <path class="cls-1" d="M329.28,310.94c0,.98.05,1.97-.03,2.94-.03.33-.37.63-.56.94-.3-.29-.85-.57-.86-.87-.07-2.7-.08-5.4-.02-8.1,0-.3.52-.84.82-.85,1.34-.05,2.75-.17,4.02.17.73.2,1.71,1.2,1.74,1.88.04,1.04-.33,2.52-1.08,3.06-1.11.81-.86,1.24-.26,2.04.52.69.95,1.45,1.42,2.19-.07.18-.14.35-.21.53-.55-.2-1.24-.26-1.61-.63-.56-.57-.85-1.4-1.34-2.04-.44-.57-1.01-1.04-1.52-1.56-.17.1-.34.21-.51.31ZM329.38,309.87c1.32-.42,2.4-.59,3.26-1.12.29-.18.26-1.7-.04-1.87-.91-.51-2.02-.66-3.21-1v3.99Z"/>
    <path class="cls-1" d="M80.94,307.68c-.16,2.56-.29,4.7-.45,6.83,0,.12-.35.22-.83.49v-10.25c3.11,1.54,3.62,4.99,6.14,7.23,0-1.95-.07-3.66.04-5.36.03-.54.52-1.06.8-1.58.23.52.63,1.03.65,1.55.07,2.17.07,4.34,0,6.51-.02.56-.37,1.12-.57,1.67-.5-.32-1.14-.53-1.47-.98-1.14-1.55-2.15-3.19-3.23-4.78-.25-.37-.57-.7-1.08-1.34Z"/>
    <path class="cls-1" d="M252.29,309.79c0-.41-.12-.87.02-1.22.46-1.19-1.21-3.25,1.17-3.58,3.9-.54,6.48.71,6.93,3.19.33,1.85.56,3.82-1.12,5.23-1.78,1.49-3.96,1.65-6.15,1.39-.33-.04-.75-.83-.8-1.31-.11-1.22-.04-2.46-.04-3.69,0,0-.01,0-.02,0ZM253.85,306.22v7.47c1.88.16,3.58.06,4.68-1.52.98-1.41.95-3.03.11-4.49-1.07-1.86-2.89-1.68-4.79-1.46Z"/>
    <path class="cls-1" d="M193.03,307.83c-.56-.24-1.22-.36-1.67-.73-1.65-1.33-3.62-1.33-5.05.09-1.22,1.22-1.2,4.08.05,5.34,1.38,1.39,3.38,1.31,5.06-.09.43-.36,1.07-.48,1.95-.86-.87,2.36-3.03,3.6-5.06,3.33-2.29-.31-4.33-2.46-4.51-4.76-.16-2.1,1.31-4.48,3.12-5.04,2.87-.89,4.89-.19,6.33,2.2-.07.17-.14.34-.21.51Z"/>
    <path class="cls-1" d="M158.6,315.2c-1.38-1.13-1.95-2.59-3.97-2.59-1.98,0-2.27,1.8-3.55,2.33-.16-.1-.31-.21-.47-.31.48-1.51.95-3.03,1.46-4.53.49-1.44.98-2.89,1.6-4.28.17-.38.75-.74,1.17-.79.32-.04.89.36,1.02.69,1,2.62,1.94,5.27,2.85,7.93.11.33-.04.75-.1,1.54ZM153.07,311.47c1.28-.07,2.15-.12,3.26-.18-.52-1.5-.93-2.72-1.53-4.44-.64,1.71-1.11,2.96-1.73,4.62Z"/>
    <path class="cls-1" d="M2.86,314.24c1.01-2.86,1.99-5.73,3.05-8.57.13-.35.67-.72,1.04-.74.33-.02.88.34,1.01.66,1.03,2.62,2.01,5.26,2.94,7.91.1.29-.14.7-.22,1.05-.34-.17-.78-.25-1-.52-1.54-1.92-3.77-1.89-5.41.08-.23.28-.7.36-1.06.54-.12-.14-.24-.28-.36-.42ZM7.28,307.33l-.42-.03c-.48,1.24-.96,2.48-1.51,3.92h3.14c-.44-1.43-.83-2.66-1.21-3.89Z"/>
    <path class="cls-1" d="M303.09,307.88c-.56-.27-1.2-.46-1.68-.84-1.62-1.3-3.69-1.22-5.01.26-1.34,1.5-1.28,3.89.14,5.3,1.27,1.27,3.41,1.19,4.95-.1.45-.37,1.05-.55,1.89-.97-.54,2.25-2.61,3.56-4.7,3.41-2.49-.18-4.36-2.09-4.61-4.72-.22-2.28,1.22-4.66,3.12-5.15,3.18-.82,5.11-.09,5.9,2.8Z"/>
    <path class="cls-1" d="M274.15,304.83c.23.49.63.97.66,1.47.09,1.58.02,3.18.07,4.76.04,1.38.54,2.37,2.16,2.43,1.68.06,2.35-.89,2.42-2.37.08-1.58-.01-3.18.08-4.76.03-.47.45-.92.69-1.38.25.43.69.85.71,1.3.07,1.76.07,3.53,0,5.29-.09,2.1-1.7,3.44-3.92,3.38-2.09-.05-3.55-1.45-3.59-3.5-.04-2.11,0-4.21,0-6.32.25-.1.49-.2.74-.31Z"/>
    <path class="cls-1" d="M61.88,305.08h5.27c-1.09,1.66-2.66.59-3.83,1.26v2.75c1.1.08,2.12.15,3.15.22.04.22.08.44.12.67-1.04.19-2.08.38-3.13.57-.69,2.64-.55,2.81,2.24,3.07.4.04.78.33,1.17.51-.39.24-.78.69-1.16.69-4.72-.01-4,.64-4.06-3.76-.02-1.82.02-3.65.04-5.47,0-.11.07-.22.18-.51Z"/>
    <path class="cls-1" d="M24.29,304.99c1.3,0,2.52-.05,3.74.01,1.74.09,2.58.97,2.67,2.62.09,1.6-.78,3.07-2.29,3-2.56-.13-3.32.92-3.02,3.25.04.29-.24.62-.37.95-1.01-.72-1.32-4.91-.73-9.83ZM27.02,309.57c1.34.06,2.29-.39,2.32-1.68.04-1.43-1.02-1.73-2.26-1.82-1.41-.11-1.68.55-1.65,1.77.02,1.22.33,1.96,1.59,1.74Z"/>
    <path class="cls-1" d="M126.74,305.12c-1.09,1.75-2.7.42-3.9,1.32v2.62c1.02.08,2.04.17,3.49.28-1.01,1.55-2.41.68-3.36,1.15-1.63,3.86,1.85,2.79,3.6,3.8-.39.19-.76.5-1.16.55-4.09.48-4.19.39-4.19-3.76,0-1.93,0-3.87,0-5.97h5.52Z"/>
    <path class="cls-1" d="M315.25,309.84c0-1.29-.06-2.59.04-3.87.03-.35.57-.67.88-1,.24.33.67.65.68.99.06,2.64.06,5.28-.01,7.92,0,.34-.57.67-.88,1-.23-.33-.65-.65-.67-.99-.08-1.35-.03-2.7-.03-4.05Z"/>
    <path class="cls-1" d="M122.34,304.5c.2-1.62,1.19-2.31,3.02-1.99-.92.61-1.84,1.21-3.02,1.99Z"/>
  </g>
</svg>