<svg width="225" height="225" viewBox="0 0 225 225" fill="none" xmlns="http://www.w3.org/2000/svg">
<path d="M0.77002 109.84C2.70002 66.34 22.78 32.85 62.37 12.43C127.53 -21.19 205.92 16.49 221.92 88.07C236.36 152.64 192.52 210.83 134.23 222.3C106.84 227.69 80.85 223.95 56.9 209.46C26.52 191.08 8.36002 164.07 2.42002 129.04C1.41002 123.09 1.36002 116.97 0.77002 109.84ZM180.85 64.42C161.89 39.4 137.27 27.41 106.22 29.45C80.64 31.14 60.99 43.53 45.61 63.62C46.08 63.88 46.27 64.04 46.5 64.12C61.24 69.16 75.96 74.27 90.76 79.14C92.47 79.7 94.83 79.37 96.55 78.65C101.75 76.47 107.04 75.01 112.7 75.01C118.28 75.01 123.57 76.29 128.59 78.61C131.54 79.97 134.31 80.24 137.45 79.1C143.89 76.76 150.46 74.76 156.96 72.57C164.81 69.92 172.64 67.22 180.84 64.42H180.85ZM33.94 88.19C26.17 114.25 30.15 138.14 45.21 160.04C58.02 178.66 75.78 189.91 98.42 193.82C98.35 193 98.35 192.61 98.28 192.23C97.03 184.5 95.8 176.78 94.51 169.06C93.27 161.66 92.12 154.25 90.63 146.9C89.84 143.01 88.08 139.51 85.13 136.59C81.84 133.32 79.2 129.4 78.06 124.89C76.66 119.35 72.95 115.87 68.63 112.77C60.23 106.74 51.8 100.74 43.36 94.75C40.35 92.61 37.29 90.53 33.92 88.2L33.94 88.19ZM127.59 193.29C172.95 188.33 208 135.71 192.09 89.35C191.33 89.89 190.63 90.4 189.91 90.9C177.26 99.73 164.58 108.52 151.99 117.44C150.55 118.46 149.08 120.01 148.51 121.62C145.87 129.05 141.54 135.4 136.75 141.53C136.05 142.43 135.57 143.65 135.38 144.79C133.25 157.53 131.18 170.28 129.12 183.03C128.57 186.43 128.11 189.84 127.6 193.3L127.59 193.29ZM10.09 102C13.98 102 17.69 102.07 21.39 101.93C22.01 101.91 22.99 100.98 23.11 100.34C23.7 97.25 23.82 94.07 24.53 91.01C35.16 45.39 79.98 14.72 126.14 22.27C160.63 27.92 184.67 47.51 197.61 80.08C200.17 86.53 201.17 93.61 202.97 100.37C203.16 101.08 203.84 102.17 204.33 102.19C208.18 102.34 212.03 102.27 215.92 102.27C212.91 58.71 176.19 11.95 119.9 8.53C54.37 4.55 12.68 56.61 10.1 101.98L10.09 102ZM9.45002 122.54C11.34 136.3 14.83 149.46 21.51 161.66C31.07 179.1 44.07 193.41 61.65 202.77C98.69 222.49 135.63 221.55 170.79 198.62C197.55 181.17 212.23 155.49 216.08 123.47H203.36C201.73 134.42 198.68 144.83 193.48 154.55C188.28 164.28 181.58 172.83 173.37 180.2C165.16 187.56 155.93 193.29 145.69 197.36C135.45 201.44 124.8 203.63 113.78 203.68C94.35 203.77 76.63 198.19 60.81 186.93C38.66 171.17 26.37 149.34 22.17 122.54H9.45002ZM113.05 83.27C96.9 83.27 83.89 95.97 83.88 111.73C83.87 128.36 96.55 141.55 112.56 141.56C128.67 141.56 142.17 128.41 142.15 112.74C142.12 96.38 129.18 83.27 113.05 83.27ZM100.45 146.89C100.27 147.14 100.18 147.21 100.19 147.27C102.36 162.78 104.53 178.29 106.8 193.78C106.89 194.36 108.02 195.17 108.7 195.22C111.44 195.39 114.2 195.22 116.95 195.32C118.55 195.38 119.15 194.89 119.39 193.2C121.03 181.69 122.83 170.21 124.56 158.71C125.17 154.67 125.72 150.63 126.35 146.25C117.49 149.56 108.93 149.69 100.45 146.9V146.89ZM189.92 80.87C188.59 78.26 187.23 75.8 186.07 73.25C185.4 71.77 184.72 71.51 183.12 72.04C171.81 75.8 160.45 79.43 149.12 83.11C145.95 84.14 142.79 85.22 139.23 86.41C145.55 93.44 148.88 101.38 149.48 110.78C163.19 100.64 176.48 90.81 189.92 80.87ZM41.14 69.56C39.97 72.66 38.93 75.62 37.72 78.5C37.09 79.99 37.49 80.76 38.75 81.67C50.4 90.09 62.01 98.58 73.63 107.04C74.24 107.48 74.91 107.85 75.79 108.4C76.82 99.55 80.39 92.2 86.39 85.9C71.25 80.43 56.34 75.05 41.14 69.56ZM22.11 115.17C22.11 113.04 22.21 111.1 22.04 109.19C21.99 108.66 21.15 107.78 20.66 107.77C16.89 107.65 13.11 107.7 9.28002 107.7V115.34C13.28 115.34 17.07 115.34 20.87 115.34C21.18 115.34 21.49 115.26 22.11 115.17ZM204.02 108.8V116.15C207.89 116.15 211.58 116.21 215.27 116.08C215.81 116.06 216.82 115 216.74 114.56C216.42 112.66 217.95 110.41 215.79 108.85C215.63 108.73 215.32 108.8 215.08 108.8C211.46 108.8 207.84 108.8 204.01 108.8H204.02Z" fill="white"/>
</svg>
